<?xml version="1.0" encoding="UTF-8"?>
<svg id="Layer_2" data-name="Layer 2" xmlns="http://www.w3.org/2000/svg" viewBox="0 0 988.79 326.28">
  <defs>
    <style>
      .cls-1 {
        fill: #bda1f6;
      }

      .cls-2 {
        fill: #8858e8;
      }
    </style>
  </defs>
  <g id="Layer_1-2" data-name="Layer 1">
    <g>
      <g>
        <path class="cls-1" d="M298.94,145.15c0-4.62-1.22-4.35-4.28-2.4-38.85,24.74-77.73,49.43-116.64,74.04-15.51,9.81-31.09,19.49-46.73,29.06-3.47,2.12-3.29,3.2,.02,5.23,10.79,6.62,21.48,13.42,32.15,20.26,1.69,1.08,3.02,1.5,4.86,.32,12.03-7.76,24.11-15.42,36.18-23.11,3.77-2.68,7.7-5.08,11.69-7.35,13.1-8.2,26.19-16.42,39.31-24.58,1.2-.75,2.4-2.41,3.83-1.71,1.85,.91,.94,3.11,.94,4.71,.02,10.02,.04,20.03,.04,30.05h-.09v17.74h17.74v-16.61h20.91c0-35.22,0-70.43,.07-105.65Z"/>
        <path class="cls-1" d="M39.81,116.81c20.75,13.01,41.43,26.16,62.16,39.21,1.58,.99,3.06,2.37,5.3,.94,11.97-7.65,24.02-15.14,37.01-23.3-13.85-8.75-26.63-16.8-39.39-24.87-5.78-3.66-11.56-7.32-17.34-10.99h-31.92v-17.51h-19.36v19.36h.07c-.01,3.52-.03,7.05-.08,10.57-.04,3.23,1.02,5.01,3.54,6.59Z"/>
        <rect class="cls-1" x="37.6" y="38.5" width="19.36" height="19.36"/>
        <rect class="cls-2" x="59.6" y="60.93" width="19.36" height="19.36"/>
        <rect class="cls-2" x="281.47" y="270.22" width="17.74" height="17.74"/>
        <rect class="cls-1" x="260.1" y="287.97" width="17.74" height="17.74"/>
        <rect class="cls-2" x="281.08" y="308.53" width="17.74" height="17.74"/>
        <path class="cls-1" d="M146.74,150.27c18.91-12.24,37.82-24.47,56.72-36.72,3.85-2.49,3.9-2.73,1.39-6.75-5.56-8.9-7.18-18.62-5.39-28.81,3.01-17.18,16.14-30.74,32.79-34.31,16.85-3.62,33.98,3.14,44.04,17.63,1.86,2.68,3.29,3.1,6.06,1.29,19.04-12.45,38.18-24.76,57.28-37.13,.95-.61,1.82-1.34,2.73-2.01-1.05-.31-1.74-.19-2.34,.11-11.42,5.65-22.84,11.31-34.25,16.99-7.5,3.73-14.87,7.8-23.33,9.09-6.52,1-9.86-1.84-9.84-8.48,.01-3.95,.94-7.78,2.07-11.5,.91-3.01-.97-3.81-2.94-4.88-2.01-1.09-3.44-1.03-4.95,1.06-2.62,3.64-5.65,6.96-9.62,9.25-3.87,2.23-6.93,1.61-9.58-1.99-2.72-3.69-4.16-7.95-5.12-12.33-.52-2.38-1.5-3.35-3.94-3.13-2.39,.22-4.47,.26-4.82,3.53-.47,4.34-1.44,8.63-3.63,12.5-2.55,4.53-5.74,5.41-10.39,2.99-3.63-1.89-6.58-4.64-9.31-7.58-2.03-2.18-3.66-1.9-5.95-.44-2.36,1.51-2.6,3.11-1.57,5.48,1.61,3.7,2.75,7.57,2.97,11.63,.29,5.31-2.13,7.94-7.42,8.23-4.09,.22-8.02-.74-11.87-1.85-2.62-.75-4.19-.5-5.53,2.19-1.37,2.76-.73,4.32,1.57,6.06,3.19,2.43,6.27,5.06,8.4,8.57,2.56,4.21,1.82,7.56-2.17,10.39-3.85,2.73-8.31,3.86-12.77,4.96-3.03,.74-2.24,3-2.25,4.96,0,1.85,.35,3.3,2.76,3.52,3.89,.37,7.72,1.24,11.35,2.77,6.35,2.67,7.7,6.73,4.11,12.57-2.43,3.95-5.6,7.31-9.14,10.25-10.85,9.03-21.84,17.92-32.68,26.97-2.49,2.08-5.34,3.86-6.83,7.12,1.13-.73,2.27-1.47,3.4-2.2Z"/>
        <path class="cls-2" d="M341.43,33.08c-20.46,13.23-40.94,26.43-61.34,39.75-2.58,1.68-3.98,1.76-4.89-1.44-1.5-5.27-4.9-9.29-8.76-12.99-14.53-13.97-37.96-13.64-52.27,.75-13.94,14.01-14.27,37.62-.46,51.8,2.48,2.55,2.12,3.47-.58,5.2-20.51,13.15-40.94,26.42-61.4,39.66-1.45,.94-2.89,1.87-4.34,2.81,.61-.12,1.2-.26,1.78-.43-13.34,8.38-26.72,16.71-39.97,25.26-2.75,1.78-4.76,1.67-7.47-.07-20.22-13-40.53-25.82-60.81-38.7-4.15-2.64-4.56-2.41-4.56,2.96,0,54.79,0,109.57,0,164.36,0,5.93,.07,5.95,4.76,3.01,10.04-6.29,20.02-12.69,30.14-18.83,2.75-1.67,3.77-3.62,3.75-7.03-.13-22.68-.08-45.36-.05-68.05,0-1.48-.78-3.48,.76-4.33,1.43-.79,2.64,.85,3.84,1.6,7.68,4.79,15.37,9.55,22.94,14.53,2.22,1.46,3.85,1.44,6.11,0,51.52-32.59,103.09-65.08,154.64-97.61,10.65-6.72,21.23-13.6,31.94-20.22,2.69-1.67,3.81-3.56,3.76-7.02-.2-12.91-.07-25.82-.1-38.73,0-.5,.03-1.01,.03-1.55,10.17-7.77,20.33-15.56,30.43-23.44,5.85-4.57,12.27-8.46,17.01-14.43-1.63,1.05-3.26,2.11-4.89,3.16Zm-122.16,33.97c7.61-9.06,20.78-12.48,31.63-8,10.85,4.48,16.68,12.49,17.89,23.64-.62,.39-1.24,.79-1.86,1.18-.42-2.17-1.36-4.36-2.83-6.33-.36-.49-.72-.99-1.01-1.54-2.83-5.25-6.63-8.09-11.22-8.95-.78-.15-1.47-.36-2.17-1.08-1.66-1.7-3.48-2.13-5.35-1.66-.62,.16-1.19,.34-1.9-.02-3.44-1.71-6.68-1.16-9.94-.23-3.08,.88-5,3.86-7.52,5.75-3.03,2.28-5.22,5.54-6.05,10.22-.1,.58-.37,1.1-.61,1.62-2.67,5.78-1.42,12.45,3.22,17.1,.28,.28,.56,.53,.69,.98,1.46,5.03,4.55,6.52,8.04,6.85,.28,.03,.53,.08,.75,.14-1.54,.98-3.08,1.96-4.62,2.94-4.02-2.37-7.18-5.71-9.71-9.85-6.29-10.3-5.36-23.3,2.57-32.75Zm22.62,32.39c-.45-.2-.92-.36-1.12,.3-.09,.29-.07,.55,0,.79-1.35,.86-2.69,1.71-4.04,2.57,.03-.31,.05-.63,.02-.96-.11-1.59-.85-2.72-1.95-3.46-2.03-1.37-4.08-1.48-6.12-1.03-.54,.12-.9,.49-.69,1.28,.18,.67,.63,.8,1.1,.71,1.44-.27,2.91-.31,4.38,.39,.8,.38,1.68,.87,1.68,2.23,0,1.24-.67,1.83-1.52,1.95-2.26,.3-4.56,.21-6.82-1.06-2.05-1.15-3.03-3.33-2.73-5.73,.33-2.6,1.9-4.07,4.02-3.67,.99,.19,1.95,.63,2.89,1.2,3.98,2.4,7.87,2.9,11.57,.75,.69-.4,1.19-.1,1.8,.46,.5,.45,1.01,.8,1.53,1.11-1.23,.78-2.45,1.56-3.67,2.34-.11-.05-.23-.1-.34-.15Zm-18.72-10.61c-.46-1.03-1.01-2.02-1.39-3.09-1.55-4.35-.9-8.44,1.7-11.08,1.49-1.51,2.89-.71,3.35,1.92,.19,1.09,.11,2.13-.07,3.14-.6,3.41-.25,6.84,.97,10.25,.4,1.13,.46,1.72-.65,1.7-2.11-.05-3.5,1.33-4.23,3.7-.43,1.39-.91,1.12-1.64,.18-2.19-2.81-2.97-7.5-1.68-10.98,.82,1.85,1.54,3.54,2.31,5.19,.35,.73,.8,1.79,1.55,1.26,.81-.57,.1-1.45-.23-2.19Zm10.59,.07c.05,.68,.21,1.34,.86,1.41,.68,.07,.74-.59,.7-1.27-.07-1.01,0-1.98,.22-2.9,.56-2.25,1.61-3,3.5-2.52,.16,.04,.33,.09,.49,.12,.97,.17,5.63,2.96,6.47,3.82,.55,.56,1.12,1.38,1.71,1.51,2.08,.46,3.37,2.25,4.65,4.09-1.48,.94-2.97,1.89-4.45,2.83-.73-.17-1.43-.49-2.13-.97-.79-.55-1.09-1.11-.34-1.87,.04-.04,.08-.09,.1-.15,.35-.74,1.36-1.39,.55-2.43-.87-1.12-1.28,.28-1.73,.86-2.96,3.86-7.91,4.72-12.16,2.06-2.65-1.66-4.51-6.78-4.1-11.33,.09-.97,.27-1.91,.34-2.88,.18-2.38,0-4.7-1.69-6.55-.53-.58-.42-.89,0-1.3,2.04-2.04,4.66-1.15,5.99,2.11,1.04,2.55,1.28,5.49,2.93,7.78,.51,.71-.2,1.07-.48,1.47-1.17,1.66-1.6,3.72-1.41,6.11Zm19.54,2.19c.07-.84,.53-1.13,1.1-1.17,1.09-.08,2.19-.07,3.28-.16-1.38,.88-2.75,1.75-4.13,2.63-.19-.39-.29-.81-.25-1.3Zm8.33-3.85c.25-.47,.51-1-.01-1.59-.51-.59-.93-.32-1.24,.22-1.12,1.95-2.87,1.93-4.63,1.9-1.2-.02-2.39,0-3.39,.83-.69,.58-1.49,.13-2.22-.19-3.42-1.49-5.44-4.86-6.91-8.93-.17-.47-.28-.97-.44-1.45-.2-.6-.52-1.05-1.03-.9-.53,.16-.53,.73-.4,1.35,.01,.07,.04,.14,.04,.21,.07,.95,1.06,2.09,.37,2.74-.67,.64-1.75,.4-2.69,.14-1.61-.44-2.75-1.76-3.44-3.73-.28-.81-.44-1.67-.69-2.5-.88-2.98-1.98-5.72-4.7-6.98,.74-1.27,1.83-1.41,2.77-1.8,2.43-1.01,4.98-1.33,7.66-.58,.42,.12,1.15,.11,1.02,1.09-.1,.74-.12,1.73-1.13,1.48-1.27-.32-2.52-.26-3.71,.11-.61,.19-1.65,.06-1.31,1.43,.3,1.23,1.09,.65,1.69,.57,.37-.05,.73-.19,1.11-.21,1.58-.07,3.2-.31,3.89,2.59,.16,.68,.64,1.37,1.29,1.04,.59-.3,.36-.95,.14-1.61-.96-2.92-.83-4.53,.39-5.43,1.58-1.17,4.05-.44,5.4,1.78,1.38,2.27,2.87,4.36,4.72,5.98,.48,.42,.98,.81,1.48,1.14,.49,.32,1.02,.46,1.26-.26,.26-.76-.21-1.18-.68-1.53-1.51-1.11-2.93-2.37-4.28-4.65,3.76,.78,6.64,2.81,8.89,6.48,.92,1.49,.74,3.19-.43,4.2-1.71,1.49-3.59,.92-5.41-.52-1.84-1.44-3.41-3.39-5-5.26-.47-.55-1-1.36-1.53-.55-.51,.77,.1,1.42,.58,1.98,.87,1.01,1.73,2.03,2.61,3,.87,.95,.6,1.4-.23,1.69-1.27,.45-2.36-.35-3.42-1.32-.55-.5-1.19-1.44-1.67-.43-.44,.93,.35,1.54,.9,2.07,2.04,1.95,4.11,2.66,6.09,.89,.6-.54,1.05-.23,1.64,.12,3.32,2.02,5.44,1.61,7.62-1.61,.6-.88,.85-.26,1.24,.33,.83,1.25,1.3,2.76,1.44,4.3-1.22,.77-2.44,1.55-3.65,2.32Z"/>
      </g>
      <g id="x1Ig6w">
        <g>
          <path class="cls-2" d="M55.85,.01c2.23,1.43,3.03,3.47,2.87,6.09-.17,2.68,.01,5.37-.11,8.05-.12,2.72-1.88,4.44-4.29,4.44-2.41,0-4.17-1.75-4.25-4.48-.09-3.16,.02-6.33,0-9.49,0-2.16,1.28-3.48,2.88-4.62,.96,0,1.93,0,2.89,.01Z"/>
          <path class="cls-2" d="M33.77,22.31c-.12,1.73-.91,3.13-2.51,3.87-1.71,.8-3.56,.66-4.74-.83-2.37-3-4.61-6.12-6.7-9.32-1.13-1.73-.6-3.56,.88-4.95,1.5-1.4,3.58-1.77,5-.47,3.32,3.05,5.76,6.86,7.94,10.81,.13,.23,.08,.56,.12,.88Z"/>
          <path class="cls-2" d="M79.21,26.8c-3.26-.01-5.47-3.36-3.81-6.05,2.01-3.25,4.33-6.32,6.77-9.26,1.37-1.65,3.43-1.7,5.23-.52,1.79,1.18,2.61,3.04,1.57,4.98-1.95,3.63-4.53,6.86-7.24,9.96-.61,.7-1.62,1-2.52,.89Z"/>
          <path class="cls-2" d="M13.87,47.79c-3.9-1.26-8.08-2.15-11.83-4.14-1.76-.93-2.31-2.79-1.58-4.78,.71-1.95,2.21-3.1,4.24-2.75,3.99,.69,7.83,2.03,11.5,3.71,2.02,.93,2.38,2.97,1.78,5-.55,1.88-2.09,2.65-4.09,2.95Z"/>
          <path class="cls-2" d="M94.5,48.16c-2.22-.34-3.72-1.26-4.17-3.32-.46-2.11,.15-4.03,2.21-4.81,3.5-1.32,7.09-2.44,10.71-3.38,2.11-.55,3.77,.51,4.64,2.53,.84,1.95,.35,3.88-1.38,4.83-3.8,2.1-8.1,2.93-12.02,4.15Z"/>
          <path class="cls-2" d="M3.7,76.79c-1.71-.14-3.13-1.3-3.59-3.4-.45-2.04,.46-3.82,2.26-4.52,3.65-1.42,7.4-2.63,11.2-3.57,1.97-.49,3.55,.85,4.22,2.72,.66,1.84,.3,3.61-1.38,4.9-.93,.71-11.07,3.92-12.72,3.87Z"/>
          <path class="cls-2" d="M108.09,72.88c-.05,2.86-2.51,4.97-5.15,4.27-3.5-.93-6.95-2.12-10.34-3.41-2.27-.87-3.23-3.35-2.23-5.48,1.01-2.14,2.74-3.18,5.17-2.41,3.1,.99,6.17,2.06,9.26,3.07,2.07,.67,3.1,2.11,3.28,3.96Z"/>
        </g>
      </g>
    </g>
    <g>
      <path class="cls-2" d="M806.35,134.58c-1.12-.43-2.2-1-3.36-1.28-15.35-3.67-22.94-13.05-23.15-28.71-.05-3.47,0-6.95-.01-10.42-.05-7.87,1.29-16-5.71-23.3h20.61c0,10.8-.03,21.39,0,31.97,.04,12.74,6.7,18.63,19.36,17.2,8.48-.96,13.25-6.06,13.33-14.58,.1-11.4,.02-22.8,.02-34.62h13.88c0,14.44,1.12,28.95-.37,43.18-1.09,10.41-9.9,15.87-19.67,18.87-1.72,.53-3.41,1.13-5.12,1.7h-9.82Z"/>
      <path class="cls-2" d="M423.35,97.74c-5.8,10.04-11.58,20.09-17.42,30.11-3.61,6.19-6.74,6.14-10.38-.16-5.8-10.04-11.57-20.1-18.59-29.96v33.92h-14.19c-3.91-19.82,4.57-41-6.4-61.18,6.51,0,12.71-.25,18.85,.19,1.44,.1,3.05,2.36,4,3.98,7.1,12.1,14.06,24.28,21.62,37.41,6.34-11.03,12.95-20.9,17.87-31.55,4.3-9.32,10.45-12.02,20.34-9.39v60.47h-14.16v-33.57l-1.54-.27Z"/>
      <path class="cls-2" d="M653.17,113.07v-42.12h14.37v60.51c-7.62,1.02-14.39,1.83-20.37-5.85-9.61-12.34-20.53-23.67-32.01-36.69v42.68h-14.96c0-12.83,.42-25.47-.16-38.07-.35-7.61-2.24-15.16-3.5-23.11,4.43,0,10.35-.33,16.2,.18,2.04,.18,4.29,2.06,5.8,3.74,9.87,10.93,19.55,22.02,29.31,33.05,1.31,1.48,2.7,2.9,5.31,5.69Z"/>
      <path class="cls-2" d="M573.19,107.51h-13.72v-10.1h27.82v35.21c-13.4-.67-26.97-.02-40-2.36-14.53-2.61-23.28-17.1-21.79-31.9,1.56-15.51,12.59-26.84,27.84-27.62,10.76-.56,21.57-.11,32.74-.11v12.01c-8.67,0-17.41,.38-26.1-.09-14.99-.81-21.02,11.23-18.73,23.63,1.51,8.18,7.53,13.28,15.85,13.63,5.25,.22,10.52,.04,16.11,.04v-12.34Z"/>
      <path class="cls-2" d="M850.85,70.57c14,0,27.48-.42,40.93,.11,16.78,.66,28.57,13.23,28.82,29.75,.25,17-11.12,30.22-27.91,31.34-10.98,.73-22.06,.31-33.08,.15-1.46-.02-3.38-1.22-4.26-2.46-1.85-2.62-3.15-5.63-5.26-9.58,8.11,0,15.31,0,22.52,0,4.49,0,8.99,.02,13.48,0,12.27-.08,19.3-6.94,19.26-18.75-.04-11.81-6.93-18.39-19.41-18.48-6.33-.05-12.67,0-19,0q-11.42,0-16.08-12.06Z"/>
      <path class="cls-2" d="M485.88,86.92c-6.64,13.79-12.86,25.96-18.34,38.45-2.33,5.3-5.32,7.59-11,6.72-2.19-.34-4.48-.06-7.56-.06,.79-2.04,1.32-3.65,2.04-5.17,6.38-13.48,12.69-27.01,19.26-40.4,2.65-5.39,6.07-10.47-1.21-16.93,8.83,0,15.66-.08,22.49,.09,.95,.02,2.32,1,2.75,1.89,9.55,19.83,19,39.71,28.91,60.52-4.15,0-7.36-.25-10.51,.07-3.84,.39-5.78-1.1-7.4-4.61-6.05-13.14-12.47-26.1-19.44-40.57Z"/>
      <path class="cls-2" d="M729.7,82.52c-4.39,0-8.12-.52-11.66,.1-9.27,1.62-14.11-2.78-16.55-11.66h69.74v11.4h-26.43v49.24h-15.1v-49.08Z"/>
      <path class="cls-2" d="M675.86,70.72h19.7v60.99h-13.46c-3.97-19.99,4.56-41.16-6.24-60.99Z"/>
      <path class="cls-2" d="M988.74,107.34c-17.76,0-35.06,.13-52.35-.2-1.67-.03-3.54-2.71-4.85-4.49-1.41-1.91-2.28-4.23-3.7-6.98h60.9v11.68Z"/>
      <path class="cls-2" d="M928.24,70.82h60.55v11.82h-32.7c-3.89,0-7.77,0-11.66,0q-11.41,0-16.19-11.82Z"/>
      <path class="cls-2" d="M927.95,120.02h60.71v12.01c-17.48,0-34.8,.11-52.11-.18-1.56-.03-3.37-2.36-4.53-4.01-1.49-2.12-2.45-4.62-4.07-7.82Z"/>
      <path class="cls-2" d="M485.94,127.28c-3.02-3.7-5.54-6.78-8.63-10.56h17.05c-2.86,3.59-5.31,6.67-8.41,10.56Z"/>
      <path class="cls-2" d="M801.94,96.25h17.35c-3.14,3.88-5.6,6.92-8.51,10.52-2.83-3.37-5.35-6.37-8.84-10.52Z"/>
    </g>
    <g>
      <path class="cls-2" d="M591.44,285.77c-2.75,11.23-10.69,16.72-21.45,17.65-9.47,.82-19.07,.17-28.76,.17v-12.42c6.74,0,13.03,.16,19.31-.06,3.63-.13,7.56-.16,10.74-1.6,2.3-1.04,4.83-4.23,4.97-6.59,.12-1.95-2.75-4.99-4.97-5.94-3.05-1.31-6.74-1.37-10.17-1.48-6.5-.2-13.01-.06-19.98-.06-.39-11.23,6.74-22.52-4.64-32.57h49.06v11.64h-28.15c-.69,3.09-1.29,5.77-2.08,9.29,15.07,.67,30.77-.16,36.12,18.3v3.68Z"/>
      <path class="cls-2" d="M423,240.25c10.65,.47,21.13-.11,31.2,1.63,13.46,2.33,21.78,14.37,22.59,29.8,.76,14.46-6.86,27.37-18.96,32.12-12.17,4.78-26.36,1.12-34.41-8.88-8.47-10.52-9.36-28.33-2.04-40.43q3.99-6.59,1.62-14.24Zm6.82,32.24c-.43,10.7,6.41,18.93,16.09,19.39,9.67,.46,17.18-7.18,17.63-17.93,.45-10.66-6.48-18.9-16.17-19.24-10.07-.36-17.11,6.78-17.55,17.79Z"/>
      <path class="cls-2" d="M409.81,292.11v11.53h-46.39c-2.25-15.83,4.67-28.52,18.88-34.78,3.17-1.4,6.64-2.41,9.38-4.41,1.65-1.21,3.03-4.07,2.86-6.03-.11-1.24-3.23-2.9-5.16-3.15-4.03-.52-8.24-.74-12.23-.14-6.4,.95-9.96-1.67-11.9-7.46-.5-1.49-1.31-2.87-2.69-5.83,12.02,.73,22.96,.93,33.78,2.23,6.18,.74,11,4.62,12.05,11.39,1.16,7.48-.91,13.95-7.6,18.05-5.03,3.09-10.51,5.43-15.67,8.34-3.62,2.04-6.84,4.58-5.85,10.28h30.54Z"/>
      <path class="cls-2" d="M484.82,241.85c11.37,.7,22.33,.92,33.15,2.23,6.19,.75,10.95,4.66,11.99,11.44,1.11,7.23-.8,13.61-7.17,17.67-4.97,3.17-10.67,5.22-15.58,8.46-3.06,2.02-5.27,5.34-7.86,8.08,.42,.65,.84,1.31,1.27,1.96h30.55v11.98h-46.24c-2.07-16.47,4.78-28.6,19.57-35.06,3.17-1.39,6.55-2.56,9.28-4.58,1.48-1.09,2.61-3.89,2.34-5.68-.19-1.26-2.9-2.8-4.65-3.05-3.62-.51-7.34-.29-11.02-.3-11.34-.02-11.48-.12-15.65-13.16Z"/>
    </g>
    <g>
      <path class="cls-1" d="M668.81,220.9c-1.34-.39-2.66-.92-4.02-1.16-18.28-3.21-30.05-17.22-28.89-34.46,1.13-16.82,15.27-29.8,33.29-30.56,25.19-1.06,42.91,20.57,35.22,43.24-4.2,12.37-13.66,18.82-25.99,21.61-1.97,.45-3.94,.89-5.92,1.33h-3.68Zm2.17-52.21c-11.45,.04-19.96,8.08-19.93,18.85,.03,10.79,8.53,18.72,20.04,18.71,11.45-.02,19.96-8.05,19.94-18.82-.02-10.74-8.61-18.78-20.04-18.74Z"/>
      <path class="cls-1" d="M359.74,206.2c11.95,0,23.73-.1,35.5,.04,7.35,.08,13.4-2.17,16.64-9.1,3.43-7.33,3.65-15.16-1.57-21.41-2.79-3.33-7.93-5.75-12.34-6.42-6.99-1.07-14.26-.34-21.41-.35q-11.95-.01-16.92-11.62c.74-.2,1.42-.54,2.09-.54,12.67-.01,25.34-.34,37.99,.13,18.04,.66,30,13.63,29.66,31.43-.33,17.1-13.04,29.57-30.73,29.95-7.76,.17-15.53,.04-23.29,.05q-11.64,0-15.61-12.15Z"/>
      <path class="cls-1" d="M630.48,206.19v11.32c-12.33,0-24.78,1.67-36.6-.37-21.27-3.66-30.93-27.08-19.73-45.72,2.9-4.82,5.84-8.7,.39-14.09,1.94-.31,2.87-.58,3.81-.59,17.16-.03,34.32-.02,51.88-.02v12.23c-8.6,0-17.33,.39-26.02-.08-17.24-.93-21.52,14.73-18.27,25.37,2.36,7.72,7.68,11.77,15.9,11.91,9.37,.16,18.74,.04,28.62,.04Z"/>
      <path class="cls-1" d="M474.24,218.13h-14.93c0-6.28,.43-12.4-.16-18.41-.37-3.82-1.5-7.99-3.6-11.13-7-10.44-14.6-20.49-22.78-31.82,5.91,0,10.53-.31,15.08,.17,1.61,.17,3.39,2,4.45,3.52,4.79,6.85,9.34,13.85,14.51,21.58,4.15-6.2,8.38-11.63,11.59-17.6,3.32-6.17,7.73-8.91,14.67-7.78,2.08,.34,4.26,.05,7.82,.05-7.68,10.58-14.22,20.13-21.35,29.22-4.02,5.12-5.91,10.37-5.38,16.85,.41,5.02,.08,10.11,.08,15.34Z"/>
      <path class="cls-1" d="M549.88,157.45c-10.92-.65-21.9-.45-32.91-.32-3.67,.05-7.34,.09-11.02,.09v60.91h11.02v-21.54c10.67,.11,21.38,.28,32-.43,9.43-.63,16.11-9.31,16.21-19.29,.1-9.62-6.28-18.89-15.3-19.42Zm.41,21.87c-1.47,4.22-4.75,5.12-8.77,5.1-8.06-.06-16.1-.05-24.55-.05v-15.39c1.33,.05,2.87,.05,4.73,.05,7.16,.01,14.33-.15,21.48,.11,5.72,.2,8.9,5.05,7.11,10.18Z"/>
      <path class="cls-1" d="M505.95,184.38v2c-.32-.63-.66-1.3-1.03-2h1.03Z"/>
      <path class="cls-1" d="M773.99,181.95v11.73h-17.11c-9.17,0-18.35,0-27.52,0q-11.36,0-15.99-11.73h60.62Z"/>
      <path class="cls-1" d="M713.4,156.98h60.37v11.98c-2.88,0-5.87,0-8.85,0-11.86,0-23.73,0-35.59,0q-11.51,0-15.93-11.98Z"/>
      <path class="cls-1" d="M773.9,206.49v11.87c-8.87,0-17.59,0-26.31,0-6.13,0-12.27,0-18.4,0q-11.55,0-15.4-11.87h60.1Z"/>
      <path class="cls-1" d="M671.04,195.39c-3.1-3.86-5.58-6.94-8.65-10.76h17.12c-2.94,3.73-5.46,6.93-8.47,10.76Z"/>
      <path class="cls-1" d="M516.97,156.99v.14c-3.67,.05-7.34,.09-11.02,.09l11.02-.22Z"/>
    </g>
  </g>
</svg>