<?xml version="1.0" encoding="UTF-8"?>
<svg id="Layer_2" data-name="Layer 2" xmlns="http://www.w3.org/2000/svg" viewBox="0 0 227.15 214">
  <defs>
    <style>
      .cls-1 {
        fill: #fff;
      }

      .cls-2 {
        fill: #bda1f6;
      }

      .cls-3 {
        fill: #8858e8;
      }
    </style>
  </defs>
  <g id="Layer_1-2" data-name="Layer 1">
    <g>
      <g>
        <path class="cls-2" d="M196.07,95.2c0-3.03-.8-2.86-2.81-1.58-25.48,16.23-50.98,32.42-76.51,48.56-10.17,6.43-20.39,12.79-30.65,19.06-2.28,1.39-2.16,2.1,.02,3.43,7.08,4.34,14.09,8.8,21.09,13.29,1.11,.71,1.98,.98,3.19,.21,7.89-5.09,15.81-10.11,23.73-15.16,2.47-1.76,5.05-3.33,7.67-4.82,8.59-5.38,17.18-10.77,25.78-16.12,.79-.49,1.58-1.58,2.51-1.12,1.22,.6,.61,2.04,.62,3.09,.01,6.57,.03,13.14,.03,19.71h-.06v11.64h11.64v-10.89h13.71c0-23.1,0-46.2,.04-69.29Z"/>
        <path class="cls-2" d="M26.11,76.61c13.61,8.53,27.18,17.16,40.77,25.72,1.03,.65,2.01,1.55,3.48,.61,7.85-5.02,15.76-9.93,24.27-15.28-9.09-5.74-17.47-11.02-25.84-16.31-3.79-2.4-7.58-4.8-11.37-7.21h-20.93v-11.48h-12.7v12.7h.05c0,2.31-.02,4.62-.05,6.93-.03,2.12,.67,3.29,2.32,4.32Z"/>
        <rect class="cls-2" x="24.66" y="25.25" width="12.7" height="12.7"/>
        <rect class="cls-1" x="39.09" y="39.97" width="12.7" height="12.7"/>
        <rect class="cls-1" x="184.62" y="177.24" width="11.64" height="11.64"/>
        <rect class="cls-2" x="170.6" y="188.88" width="11.64" height="11.64"/>
        <rect class="cls-1" x="184.36" y="202.37" width="11.64" height="11.64"/>
        <path class="cls-2" d="M96.25,98.56c12.4-8.03,24.81-16.05,37.2-24.08,2.53-1.64,2.56-1.79,.91-4.43-3.65-5.84-4.71-12.21-3.54-18.89,1.97-11.27,10.59-20.16,21.51-22.51,11.05-2.37,22.29,2.06,28.89,11.57,1.22,1.76,2.16,2.03,3.97,.84,12.49-8.17,25.04-16.24,37.57-24.35,.62-.4,1.19-.88,1.79-1.32-.69-.2-1.14-.13-1.54,.07-7.49,3.71-14.98,7.42-22.47,11.15-4.92,2.45-9.75,5.12-15.3,5.97-4.28,.65-6.47-1.21-6.45-5.56,0-2.59,.61-5.1,1.35-7.54,.6-1.98-.63-2.5-1.93-3.2-1.32-.71-2.26-.67-3.24,.69-1.72,2.38-3.7,4.57-6.31,6.07-2.54,1.46-4.54,1.05-6.28-1.31-1.78-2.42-2.73-5.21-3.36-8.09-.34-1.56-.99-2.2-2.58-2.05-1.57,.14-2.93,.17-3.16,2.32-.31,2.85-.94,5.66-2.38,8.2-1.68,2.97-3.77,3.55-6.82,1.96-2.38-1.24-4.32-3.05-6.11-4.97-1.33-1.43-2.4-1.25-3.9-.29-1.55,.99-1.71,2.04-1.03,3.59,1.06,2.43,1.81,4.97,1.95,7.63,.19,3.48-1.4,5.21-4.87,5.4-2.68,.14-5.26-.49-7.79-1.21-1.72-.49-2.75-.33-3.62,1.44-.9,1.81-.48,2.83,1.03,3.98,2.09,1.59,4.11,3.32,5.51,5.62,1.68,2.76,1.19,4.96-1.42,6.81-2.53,1.79-5.45,2.53-8.37,3.25-1.99,.49-1.47,1.97-1.48,3.25,0,1.21,.23,2.16,1.81,2.31,2.55,.24,5.06,.81,7.44,1.81,4.16,1.75,5.05,4.42,2.7,8.25-1.59,2.59-3.67,4.79-5.99,6.72-7.12,5.93-14.32,11.75-21.43,17.69-1.63,1.36-3.5,2.53-4.48,4.67,.74-.48,1.49-.96,2.23-1.44Z"/>
        <path class="cls-3" d="M223.95,21.7c-13.42,8.68-26.85,17.33-40.23,26.07-1.69,1.1-2.61,1.15-3.21-.95-.98-3.45-3.22-6.09-5.74-8.52-9.53-9.16-24.9-8.95-34.28,.49-9.14,9.19-9.36,24.67-.3,33.98,1.63,1.67,1.39,2.28-.38,3.41-13.45,8.63-26.85,17.33-40.27,26.01-.95,.61-1.9,1.23-2.85,1.84,.4-.08,.79-.17,1.17-.28-8.75,5.5-17.52,10.96-26.22,16.57-1.81,1.17-3.12,1.1-4.9-.05-13.26-8.53-26.58-16.93-39.89-25.38-2.72-1.73-2.99-1.58-2.99,1.94,0,35.93,0,71.87,0,107.8,0,3.89,.05,3.9,3.12,1.98,6.59-4.12,13.13-8.32,19.77-12.35,1.8-1.09,2.47-2.37,2.46-4.61-.09-14.88-.05-29.75-.03-44.63,0-.97-.51-2.28,.5-2.84,.93-.51,1.73,.56,2.52,1.05,5.03,3.14,10.08,6.27,15.05,9.53,1.45,.96,2.53,.94,4.01,0,33.79-21.38,67.61-42.69,101.43-64.02,6.99-4.41,13.92-8.92,20.95-13.26,1.77-1.09,2.5-2.34,2.46-4.61-.13-8.47-.05-16.94-.07-25.4,0-.33,.02-.66,.02-1.01,6.67-5.1,13.34-10.21,19.96-15.37,3.84-3,8.05-5.55,11.16-9.46-1.07,.69-2.14,1.38-3.2,2.07Zm-80.12,22.28c4.99-5.95,13.63-8.19,20.75-5.25,7.12,2.94,10.94,8.19,11.74,15.5-.41,.26-.81,.52-1.22,.77-.28-1.42-.89-2.86-1.85-4.15-.24-.32-.47-.65-.66-1.01-1.86-3.45-4.35-5.31-7.36-5.87-.51-.1-.97-.24-1.42-.71-1.09-1.12-2.28-1.4-3.51-1.09-.41,.1-.78,.22-1.25-.01-2.26-1.12-4.38-.76-6.52-.15-2.02,.57-3.28,2.53-4.93,3.77-1.99,1.5-3.42,3.63-3.97,6.7-.07,.38-.24,.72-.4,1.06-1.75,3.79-.93,8.17,2.11,11.22,.18,.18,.37,.35,.45,.64,.96,3.3,2.98,4.28,5.27,4.49,.19,.02,.35,.05,.49,.09-1.01,.64-2.02,1.28-3.03,1.93-2.64-1.55-4.71-3.74-6.37-6.46-4.13-6.75-3.51-15.29,1.69-21.48Zm14.83,21.24c-.29-.13-.6-.23-.73,.19-.06,.19-.05,.36,0,.52-.88,.56-1.77,1.12-2.65,1.69,.02-.2,.03-.41,.01-.63-.07-1.04-.56-1.79-1.28-2.27-1.33-.9-2.68-.97-4.01-.68-.35,.08-.59,.32-.45,.84,.12,.44,.42,.52,.72,.46,.95-.18,1.91-.2,2.88,.26,.52,.25,1.1,.57,1.1,1.46,0,.81-.44,1.2-1,1.28-1.48,.2-2.99,.14-4.47-.69-1.35-.75-1.99-2.18-1.79-3.76,.22-1.71,1.25-2.67,2.64-2.41,.65,.12,1.28,.41,1.9,.79,2.61,1.58,5.16,1.9,7.59,.49,.45-.26,.78-.06,1.18,.3,.32,.3,.66,.53,1.01,.73-.8,.51-1.61,1.02-2.41,1.53-.07-.03-.15-.07-.22-.1Zm-12.28-6.96c-.3-.67-.66-1.32-.91-2.02-1.02-2.85-.59-5.54,1.12-7.27,.98-.99,1.89-.47,2.19,1.26,.12,.72,.07,1.39-.04,2.06-.39,2.24-.16,4.49,.64,6.73,.26,.74,.3,1.13-.42,1.11-1.38-.03-2.3,.87-2.77,2.43-.28,.91-.59,.73-1.07,.12-1.43-1.84-1.95-4.92-1.1-7.2,.54,1.22,1.01,2.32,1.52,3.4,.23,.48,.53,1.17,1.01,.83,.53-.37,.07-.95-.15-1.44Zm6.95,.05c.04,.45,.14,.88,.56,.93,.44,.04,.49-.39,.46-.84-.04-.66,0-1.3,.15-1.9,.37-1.48,1.06-1.97,2.29-1.65,.11,.03,.22,.06,.32,.08,.63,.11,3.69,1.94,4.24,2.51,.36,.37,.74,.9,1.12,.99,1.36,.3,2.21,1.48,3.05,2.69-.97,.62-1.95,1.24-2.92,1.86-.48-.11-.94-.32-1.4-.64-.52-.36-.72-.73-.23-1.23,.03-.03,.05-.06,.07-.1,.23-.49,.89-.91,.36-1.59-.57-.74-.84,.18-1.13,.57-1.94,2.53-5.19,3.1-7.98,1.35-1.74-1.09-2.96-4.45-2.69-7.43,.06-.64,.18-1.25,.22-1.89,.12-1.56,0-3.08-1.11-4.29-.34-.38-.28-.58,0-.85,1.34-1.34,3.06-.75,3.93,1.38,.68,1.67,.84,3.6,1.92,5.1,.33,.46-.13,.7-.32,.97-.77,1.09-1.05,2.44-.92,4.01Zm12.82,1.43c.05-.55,.35-.74,.72-.77,.72-.05,1.44-.04,2.15-.1-.9,.57-1.81,1.15-2.71,1.72-.12-.25-.19-.53-.16-.85Zm5.47-2.52c.16-.31,.33-.65,0-1.04-.34-.39-.61-.21-.81,.15-.73,1.28-1.88,1.27-3.03,1.25-.79-.02-1.56,0-2.22,.55-.46,.38-.98,.08-1.45-.13-2.24-.98-3.57-3.19-4.53-5.86-.11-.31-.18-.64-.29-.95-.13-.39-.34-.69-.67-.59-.35,.1-.35,.48-.26,.88,0,.05,.03,.09,.03,.14,.05,.62,.69,1.37,.24,1.8-.44,.42-1.15,.26-1.76,.09-1.06-.29-1.8-1.16-2.26-2.45-.19-.53-.29-1.1-.45-1.64-.57-1.95-1.3-3.75-3.09-4.58,.48-.83,1.2-.92,1.82-1.18,1.59-.66,3.27-.87,5.03-.38,.27,.08,.76,.07,.67,.71-.07,.49-.08,1.14-.74,.97-.83-.21-1.65-.17-2.43,.07-.4,.12-1.08,.04-.86,.94,.2,.8,.72,.43,1.11,.37,.24-.04,.48-.12,.73-.13,1.04-.05,2.1-.2,2.55,1.7,.11,.45,.42,.9,.85,.68,.39-.2,.24-.62,.09-1.06-.63-1.91-.54-2.97,.26-3.56,1.04-.77,2.65-.29,3.54,1.17,.91,1.49,1.89,2.86,3.1,3.92,.31,.28,.64,.53,.97,.75,.32,.21,.67,.3,.83-.17,.17-.5-.14-.78-.45-1-.99-.73-1.92-1.55-2.81-3.05,2.47,.51,4.35,1.84,5.83,4.25,.6,.98,.48,2.09-.28,2.75-1.12,.97-2.35,.6-3.55-.34-1.2-.95-2.23-2.22-3.28-3.45-.31-.36-.66-.89-1.01-.36-.33,.51,.06,.93,.38,1.3,.57,.66,1.13,1.33,1.71,1.97,.57,.63,.39,.92-.15,1.11-.83,.29-1.55-.23-2.25-.86-.36-.33-.78-.94-1.09-.28-.29,.61,.23,1.01,.59,1.36,1.34,1.28,2.7,1.75,3.99,.58,.39-.35,.69-.15,1.07,.08,2.18,1.33,3.57,1.06,5-1.06,.39-.58,.55-.17,.81,.22,.55,.82,.85,1.81,.94,2.82-.8,.51-1.6,1.02-2.4,1.52Z"/>
      </g>
      <g id="x1Ig6w">
        <g>
          <path class="cls-1" d="M36.63,0c1.46,.94,1.99,2.27,1.88,3.99-.11,1.76,0,3.52-.07,5.28-.08,1.79-1.24,2.92-2.82,2.91-1.58,0-2.73-1.15-2.79-2.94-.06-2.07,.01-4.15,0-6.23,0-1.42,.84-2.28,1.89-3.03h1.9Z"/>
          <path class="cls-1" d="M22.15,14.63c-.08,1.14-.6,2.05-1.64,2.54-1.12,.52-2.33,.44-3.11-.54-1.56-1.97-3.02-4.01-4.39-6.11-.74-1.14-.4-2.34,.58-3.24,.98-.92,2.35-1.16,3.28-.31,2.18,2,3.78,4.5,5.21,7.09,.08,.15,.05,.37,.08,.58Z"/>
          <path class="cls-1" d="M51.95,17.58c-2.14,0-3.59-2.21-2.5-3.97,1.32-2.13,2.84-4.15,4.44-6.08,.9-1.08,2.25-1.11,3.43-.34,1.18,.77,1.71,1.99,1.03,3.27-1.28,2.38-2.97,4.5-4.75,6.53-.4,.46-1.07,.65-1.66,.59Z"/>
          <path class="cls-1" d="M9.1,31.35c-2.56-.83-5.3-1.41-7.76-2.71-1.16-.61-1.51-1.83-1.04-3.13,.47-1.28,1.45-2.03,2.78-1.8,2.62,.45,5.13,1.33,7.54,2.44,1.32,.61,1.56,1.95,1.17,3.28-.36,1.23-1.37,1.74-2.69,1.93Z"/>
          <path class="cls-1" d="M61.98,31.59c-1.46-.22-2.44-.83-2.74-2.18-.3-1.39,.1-2.65,1.45-3.16,2.3-.87,4.65-1.6,7.03-2.22,1.38-.36,2.47,.33,3.04,1.66,.55,1.28,.23,2.54-.9,3.17-2.5,1.38-5.32,1.92-7.88,2.72Z"/>
          <path class="cls-1" d="M2.43,50.37c-1.12-.09-2.05-.85-2.35-2.23-.29-1.34,.3-2.5,1.48-2.96,2.39-.93,4.85-1.72,7.35-2.34,1.29-.32,2.33,.56,2.77,1.78,.43,1.21,.2,2.37-.9,3.21-.61,.47-7.26,2.57-8.34,2.54Z"/>
          <path class="cls-1" d="M70.9,47.8c-.03,1.88-1.64,3.26-3.38,2.8-2.3-.61-4.56-1.39-6.78-2.24-1.49-.57-2.12-2.2-1.46-3.59,.66-1.4,1.8-2.09,3.39-1.58,2.03,.65,4.05,1.35,6.07,2.01,1.36,.44,2.04,1.38,2.15,2.6Z"/>
        </g>
      </g>
    </g>
  </g>
</svg>